<?xml version="1.0" encoding="iso-8859-1"?>
<!-- Uploaded to: SVG Repo, www.svgrepo.com, Generator: SVG Repo Mixer Tools -->
<svg version="1.1" id="Layer_1" xmlns="http://www.w3.org/2000/svg" xmlns:xlink="http://www.w3.org/1999/xlink" 
	 viewBox="0 0 392.578 392.578" xml:space="preserve">
<path style="fill:#FFFFFF;" d="M21.808,249.729c0,5.301,4.331,9.632,9.632,9.632h329.568c5.301,0,9.632-4.331,9.632-9.632V31.547
	c0-5.301-4.331-9.632-9.632-9.632H31.57c-5.301,0-9.632,4.331-9.632,9.632"/>
<rect x="43.594" y="43.572" style="fill:#56ACE0;" width="305.325" height="194.004"/>
<path style="fill:#194F82;" d="M361.008,0H31.57C14.18,0,0.022,14.158,0.022,31.547v218.311c0,17.325,14.158,31.418,31.547,31.418
	h93.414l-29.802,97.228c-1.745,5.689,1.487,11.83,7.176,13.576c5.818,1.745,11.83-1.487,13.576-7.176l14.675-47.774H261.97
	l14.675,47.774c1.745,5.689,7.887,8.986,13.576,7.176c5.818-1.745,8.986-7.887,7.176-13.576l-29.802-97.228h93.414
	c17.39,0,31.547-14.158,31.547-31.547V31.547C392.556,14.158,378.398,0,361.008,0z M137.332,315.345l10.408-34.069h97.034
	l10.408,34.069H137.332z M370.77,249.729c0,5.301-4.331,9.632-9.632,9.632H31.57c-5.301,0-9.632-4.331-9.632-9.632V170.99h18.554
	c6.012,0,10.925-4.848,10.925-10.925c0-6.012-4.848-10.925-10.925-10.925H21.873v-17.067h38.012c6.012,0,10.925-4.848,10.925-10.925
	c0-6.012-4.848-10.925-10.925-10.925H21.808V31.547c0-5.301,4.331-9.632,9.632-9.632h329.568c5.301,0,9.632,4.331,9.632,9.632
	v218.246h0.129V249.729z"/>
</svg>