<?xml version="1.0" ?>
<!DOCTYPE svg  PUBLIC '-//W3C//DTD SVG 1.1//EN'  'http://www.w3.org/Graphics/SVG/1.1/DTD/svg11.dtd'>
<!-- Uploaded to: SVG Repo, www.svgrepo.com, Generator: SVG Repo Mixer Tools -->
<svg width="800px" height="800px" viewBox="0 0 13333.33 13333.33" style="shape-rendering:geometricPrecision; text-rendering:geometricPrecision; image-rendering:optimizeQuality; fill-rule:evenodd; clip-rule:evenodd" version="1.1" xml:space="preserve" xmlns="http://www.w3.org/2000/svg" xmlns:xlink="http://www.w3.org/1999/xlink" xmlns:xodm="http://www.corel.com/coreldraw/odm/2003">
<defs>
<style type="text/css">
   <![CDATA[
    .fil0 {fill:none}
    .fil1 {fill:#03A9F4}
    .fil3 {fill:#4FC3F7}
    .fil2 {fill:#FFFF66}
   ]]>
  </style>
</defs>
<g id="Layer_x0020_1">
<rect class="fil0" height="13333.33" width="13333.33" x="-0" y="-0.01"/>
<g id="_582344619184">
<path class="fil1" d="M5053.59 1833.33l3226.14 0c1045.37,0 1898.07,852.7 1898.07,1898.07l0 5870.52c0,1045.37 -852.7,1898.07 -1898.07,1898.07l-3226.14 0c-1045.37,0 -1898.07,-852.7 -1898.07,-1898.07l0 -5870.52c0,-1045.37 852.7,-1898.07 1898.07,-1898.07z"/>
<rect class="fil2" height="8197.57" rx="1163.53" ry="1163.53" width="5553.19" x="3890.07" y="2567.88"/>
<rect class="fil1" height="470.11" rx="235.05" ry="235.05" width="2044.99" x="5644.17" y="9713.58"/>
<rect class="fil1" height="5729.49" rx="434.85" ry="434.85" width="4260.39" x="4536.47" y="3461.09"/>
<path class="fil3" d="M8796.86 8755.73c0,239.17 -195.68,434.85 -434.85,434.85l-3390.69 0c-239.17,0 -434.85,-195.68 -434.85,-434.85l0 -2429.89 -646.4 0 0 3276.09c0,639.94 523.59,1163.53 1163.53,1163.53l3226.14 0c639.94,0 1163.53,-523.59 1163.53,-1163.53l0 -1357.45 -646.41 0 0 511.25zm-1107.7 1192.91c0,129.28 -105.77,235.06 -235.06,235.06l-1574.87 0c-129.28,0 -235.06,-105.77 -235.06,-235.06 0,-129.28 105.77,-235.06 235.06,-235.06l1574.87 0c129.28,0 235.06,105.77 235.06,235.06z"/>
</g>
</g>
</svg>